<?xml version="1.0" encoding="utf-8"?>
<!-- Generator: Adobe Illustrator 24.1.2, SVG Export Plug-In . SVG Version: 6.00 Build 0)  -->
<svg version="1.1" id="レイヤー_1" xmlns="http://www.w3.org/2000/svg" xmlns:xlink="http://www.w3.org/1999/xlink" x="0px"
	 y="0px" width="468.693px" height="60.383px" viewBox="0 0 468.693 60.383" style="enable-background:new 0 0 468.693 60.383;"
	 xml:space="preserve">
<style type="text/css">
	.st0{fill:#7FC7EF;}
	.st1{fill:#E9607C;}
	.st2{fill:#231815;}
</style>
<g>
	<g>
		<path class="st0" d="M53.938,46.657c12.847,0,23.251-10.404,23.251-23.23c0-12.85-10.404-23.246-23.251-23.246
			c-12.821,0-23.219,10.397-23.219,23.246C30.72,36.252,41.118,46.657,53.938,46.657z"/>
		<path class="st1" d="M27.606,1.127c0.202,0.408,0.202,0.907,0,1.313c-1.002,1.821-3.532,2.323-3.739,4.447
			c-1.829,7.481-4.658,14.556-7.587,21.543h0.397c8.517-5.055,16.097-12.541,24.986-16.679c1.114-0.411,2.741-0.717,3.942-0.219
			c1.823,1.131,2.841,3.138,3.036,5.159c-0.113,3.245-1.403,6.072-2.828,8.806c-0.107,0.306,0.095,0.711,0.398,0.602h0.61
			c6.579-5.453,12.842-11.43,20.627-13.661c1.195-0.092,2.527,0.224,3.541,1.127c1.311,1.412,2.222,3.033,2.928,4.652
			c0.497,0.498,1.12,0.904,1.927,0.904c5.149-1.613,9.21-6.268,14.976-6.385c5.552,1.535,11.913,1.245,17.285-0.692
			c2.725-1.011,5.562-2.032,8.289-3.13c-0.304,1.815-2.126,2.532-3.139,3.939c-0.708-0.117-0.904,0.916-1.51,1.128
			c-0.715,0.182-1.42,0.996-2.127,0.503c-0.198,0.493-0.715,0.909-1.305,1.086c-1.126-0.388-1.434,1.228-2.547,0.508
			c-0.292-0.189-0.493,0.214-0.493,0.426c-0.921,0.186-1.415,0.702-2.438,0.588c-1.314,0.715-2.916,0.628-4.434,0.826
			c-2.132,0-4.152-0.612-6.075-1.32c-1.504-0.61-2.524,0.708-3.947,0.708c-0.202,1.01-1.614,0-1.815,1.215
			c-0.501,0.707-1.725-0.413-1.621,0.817c-0.91,0.089-1.518,1.397-2.532,1.118c-0.703,1.193-2.221,1.193-3.128,2.406
			c-0.611,0.203-1.312-0.291-1.629,0.41c-1.406,0.6-2.931,0.2-4.126-0.617c-1.929-1.609-2.752-3.835-3.746-5.965
			c-1.619-1.12-3.134,0.616-4.758,0.817c-2.133,1.412-4.244,2.737-6.182,4.238c-1.297,0.825-2.521,2.024-3.933,2.846
			c-1.008,0.511-1.309,1.908-2.519,2.116c-1.011,1.303-2.632,2.326-3.446,3.529c-1.908,1.32-3.848,3.658-6.379,3.143
			c-1.094-0.404-2.925-1.21-3.119-2.723c0.194-5.055,2.511-9.412,4.545-13.764c0-0.49,0.212-1.325-0.507-1.397
			c-2.52,0.391-4.35,2.51-6.666,3.522c-0.7,1.01-2.029,1.01-3.043,1.715c-0.802,0.633-1.319,1.524-2.326,1.716
			c-1.512,1.32-3.24,2.333-4.652,3.649c-0.703,0.109-1.007,1.014-1.827,1.113c-0.183,0.402-0.501,0.402-0.815,0.607
			c-2.012,2.14-4.544,3.44-6.755,5.467c-1.939,1.816-4.954,3.438-5.868,6.064l-2.437,5.767c-0.185,0-0.29,0-0.4,0.09l0.214,0.224
			c-1.732,4.739-3.441,9.604-4.971,14.453c-0.197,0.513-0.904,0.606-1.392,0.391c-1.041-0.602-2.132-1.3-2.543-2.418v-1.21
			c1.502-4.55,3.334-9.102,4.953-13.652c-1.409-0.207-3.245,0.196-4.043-1.318c-0.398-0.722-0.808-1.613-0.398-2.327
			c1.709-1.315,3.424-2.321,5.253-3.55c0.284,0,0.612-0.587,1.017-0.699l2.41-1.612c2.026-4.047,3.447-8.297,5.265-12.444
			c1.203-4.045,2.941-7.884,4.043-11.933l-0.197-0.1c-2.918,1.206-5.967,2.433-9.21,3.14c-1.596-0.316-3.221-0.623-4.14-2.224
			c-0.201-0.503-0.313-1.218,0-1.73c0.919-1.708,3.239-0.496,4.753-1.213c3.544-0.897,6.892-2.333,10.212-3.738
			c0.809-2.626,3.745-1.713,5.359-3.138C26.396-0.3,27.004,0.522,27.606,1.127z"/>
	</g>
	<g>
		<rect x="128.578" y="16.051" class="st2" width="12.274" height="2.789"/>
		<rect x="140.76" y="22.059" class="st2" width="16.383" height="2.786"/>
		<rect x="180.185" y="11.178" class="st2" width="6.449" height="3.462"/>
		<rect x="143.209" y="15.181" class="st2" width="13.934" height="2.8"/>
		<rect x="160.856" y="16.324" class="st2" width="25.896" height="2.786"/>
		<rect x="193.544" y="20.913" class="st2" width="18.622" height="2.803"/>
		<rect x="189.752" y="26.507" class="st2" width="26.439" height="2.779"/>
		<rect x="230.606" y="35.978" class="st2" width="17.187" height="2.78"/>
		<rect x="255.01" y="35.321" class="st2" width="27.082" height="3.436"/>
		<rect x="255.01" y="11.134" class="st2" width="27.082" height="3.453"/>
		<path class="st2" d="M285.115,11.134v3.453h23.097v4.361c0,15.592-15.356,16.374-19.11,16.374h-3.986v3.436l4.729-0.034
			c20.321,0,22.356-14.738,22.356-21.932v-5.657H285.115z"/>
		<path class="st2" d="M372.733,11.134v7.814c0,15.592-15.374,16.374-19.136,16.374h-3.987v3.436l4.751-0.034
			c20.293,0,22.345-14.738,22.345-21.932v-5.657H372.733z"/>
		<rect x="349.611" y="11.134" class="st2" width="17.635" height="3.453"/>
		<path class="st2" d="M399.329,27.211c0-2.794-3.656-2.423-7.577-2.423h-8.706v-3.442h11.617c3.998,0,7.97,0.361,7.97,7.494h-3.347
			v-1.071L399.329,27.211z"/>
		<path class="st2" d="M346.602,16.791v-5.657h-27.093v3.453h23.136v4.361c0,1.181,0.626,5.142-6.902,5.142v3.376h2.171
			C344.134,27.466,346.602,24.09,346.602,16.791z"/>
		<rect x="232.198" y="18.667" class="st2" width="14.099" height="2.783"/>
		<path class="st2" d="M220.499,15.872v2.794h7.43c-0.921,2.126-3.468,6.811-8.823,9.42v3.65
			c5.908-1.839,12.248-10.695,12.248-13.435v-2.429H220.499z"/>
		<rect x="160.856" y="22.776" class="st2" width="13.421" height="2.812"/>
		<polygon class="st2" points="174.74,34.354 174.74,30.874 160.856,35.286 160.856,38.757 		"/>
		<rect x="133.412" y="11.208" class="st2" width="3.119" height="27.524"/>
		<path class="st2" d="M175.693,20.936v-9.728h3.145v9.728c0,7.185,1.923,13.765,3.93,13.765c1.144,0,0.833-5.322,0.833-5.322h3.103
			c0,2.57,0.797,8.638-3.804,8.638C178.311,38.017,175.693,30.141,175.693,20.936z"/>
		<rect x="165.965" y="23.961" class="st2" width="3.109" height="11.683"/>
		<rect x="147.01" y="11.208" class="st2" width="3.124" height="27.524"/>
		<rect x="223.84" y="11.208" class="st2" width="3.109" height="5.793"/>
		<rect x="223.84" y="25.615" class="st2" width="3.109" height="13.109"/>
		<rect x="237.546" y="11.208" class="st2" width="3.114" height="27.524"/>
		<rect x="266.457" y="11.208" class="st2" width="3.762" height="27.524"/>
		<rect x="410.673" y="35.321" class="st2" width="27.094" height="3.436"/>
		<rect x="410.673" y="11.134" class="st2" width="27.094" height="3.453"/>
		<rect x="422.146" y="11.208" class="st2" width="3.748" height="27.524"/>
		<path class="st2" d="M462.614,32.272c-0.658,2.049-2.9,3.049-4.721,3.049h-13.25v3.436h13.25c2.708,0,5.691-1.067,6.553-2.9"/>
		<polygon class="st2" points="460.942,21.314 457.175,21.314 464.926,38.733 468.693,38.733 		"/>
		<polygon class="st2" points="457.833,11.208 454.052,11.208 441.707,38.733 445.478,38.733 		"/>
		<rect x="380.197" y="11.208" class="st2" width="3.762" height="27.524"/>
		<path class="st2" d="M145.339,11.208h-3.756c0,2.358,0.458,4.721-0.731,6.02v4.624C143.853,20.553,145.339,14.745,145.339,11.208z
			"/>
		<path class="st2" d="M133.542,17.228c0,3.654-3.466,12.669-5.176,13.969v3.852c3.643-1.267,6.882-8.148,7.536-10.51
			C136.531,22.168,133.542,17.228,133.542,17.228z"/>
		<path class="st2" d="M140.878,24.896v3.956c-4.766-1.42-5.84-5.175-5.84-5.175l0.531-6.128
			C136.152,20.25,139.382,24.458,140.878,24.896z"/>
		<path class="st2" d="M232.16,27.046v3.964c-4.779-1.423-5.867-5.182-5.867-5.182l1.636-4.634
			C228.668,25.389,230.656,26.616,232.16,27.046z"/>
		<path class="st2" d="M145.464,23.782c0,2.576-2.591,6.499-4.612,7.359v3.632c3.956-1.097,7.306-6.687,7.306-6.687
			c0,2.255,7.235,6.771,8.861,7.304v-3.44c-4.885-2.789-5.753-5.635-5.753-8.06L145.464,23.782z"/>
		<path class="st2" d="M209.213,27.693h-12.402l-5.669,10.923h23.741L209.213,27.693z M196.892,35.321l3.845-6.909h4.546
			l3.849,6.909H196.892z"/>
		<path class="st2" d="M204.997,11.178c0-0.024,0-0.064,0.042-0.095h-0.054h-4.324h-0.046c0.009,0.03,0.021,0.071,0.021,0.095
			c-0.132,3.018-8.23,8.18-11.102,8.405v3.018c4.042,0,10.04-3.761,13.289-7.583c3.235,3.822,9.213,7.583,13.28,7.583v-3.018
			C213.193,19.358,205.136,14.196,204.997,11.178z"/>
		<path class="st2" d="M331.014,16.681v6.026c0,3.531,0.65,12.615-10.017,12.615h-1.488v3.436l2.255-0.034
			c3.548,0,12.601,0.656,12.601-16.664l0.043-5.366h-3.111"/>
		<path class="st2" d="M394.974,16.21c1.365,0,2.469-1.088,2.469-2.42c0-1.348-1.103-2.432-2.469-2.432
			c-1.334,0-2.421,1.085-2.421,2.432C392.553,15.123,393.64,16.21,394.974,16.21z"/>
		<path class="st2" d="M400.245,16.21c1.338,0,2.444-1.088,2.444-2.42c0-1.348-1.106-2.432-2.444-2.432
			c-1.352,0-2.415,1.085-2.415,2.432C397.83,15.123,398.893,16.21,400.245,16.21z"/>
	</g>
</g>
</svg>
